<svg version="1.1" id="Layer_1" xmlns="http://www.w3.org/2000/svg" xmlns:xlink="http://www.w3.org/1999/xlink" x="0px" y="0px"
	 width="100%" viewBox="0 0 2500 2500" enable-background="new 0 0 2500 2500" xml:space="preserve">
<path fill="#FFFFFF" opacity="1.000000" stroke="none" 
	d="
M1654.000000,2502.000000 
	C1102.666626,2502.000000 552.333313,2502.000000 2.000000,2502.000000 
	C2.000000,1668.666626 2.000000,835.333313 2.000000,2.000000 
	C835.333313,2.000000 1668.666626,2.000000 2502.000000,2.000000 
	C2502.000000,835.333313 2502.000000,1668.666626 2502.000000,2502.000000 
	C2219.666748,2502.000000 1937.333374,2502.000000 1654.000000,2502.000000 
M1125.348755,2097.727539 
	C1160.581909,2104.624512 1196.260132,2107.914307 1232.035400,2109.498291 
	C1262.916748,2110.865479 1293.801392,2109.003174 1324.568970,2105.847412 
	C1360.931885,2102.117676 1396.740479,2095.440918 1432.100342,2086.130615 
	C1478.220459,2073.987305 1522.487427,2056.936523 1565.089966,2035.697388 
	C1593.374878,2021.596191 1620.352051,2005.137573 1646.454102,1987.244141 
	C1691.615479,1956.285400 1732.676147,1920.616455 1769.335205,1880.005737 
	C1796.764038,1849.620361 1821.456909,1817.097534 1843.318237,1782.404785 
	C1871.802002,1737.202759 1894.566284,1689.313599 1912.195557,1638.944092 
	C1924.171631,1604.727051 1933.165527,1569.697266 1939.428467,1534.008179 
	C1945.455322,1499.664917 1949.525757,1465.035767 1949.574463,1430.148438 
	C1949.795410,1271.494019 1949.671265,1112.839355 1949.671265,954.184692 
	C1949.671265,879.523682 1949.665894,804.862732 1949.686890,730.201721 
	C1949.687988,726.372620 1949.915894,722.543518 1950.050537,718.331604 
	C1954.954102,718.331604 1958.587524,718.331482 1962.220947,718.331604 
	C2001.884644,718.332886 2041.548462,718.262878 2081.211914,718.374817 
	C2094.930176,718.413513 2105.446045,712.395386 2113.991699,702.189270 
	C2121.944824,692.690613 2123.595459,681.238525 2123.648438,669.478943 
	C2123.791260,637.815369 2123.697510,606.150635 2123.697266,574.486389 
	C2123.696777,530.823059 2123.666016,487.159668 2123.706299,443.496368 
	C2123.736816,410.371490 2099.776855,395.330017 2075.997070,395.381195 
	C1852.015259,395.863403 1628.031860,395.667725 1404.048950,395.669647 
	C1401.049438,395.669678 1397.853516,395.026733 1395.089233,395.839935 
	C1388.174194,397.874329 1380.738403,399.449921 1374.802002,403.234039 
	C1361.104736,411.965332 1355.634277,425.511658 1355.644287,441.558014 
	C1355.692505,518.552185 1355.662598,595.546326 1355.686035,672.540466 
	C1355.686768,675.196228 1355.792847,677.873352 1356.131104,680.504272 
	C1359.016357,702.944397 1376.393799,718.302246 1398.976685,718.322876 
	C1438.307007,718.358765 1477.637329,718.332031 1516.967651,718.331604 
	C1520.521240,718.331543 1524.074829,718.331604 1528.328857,718.331604 
	C1528.328857,723.487915 1528.328857,727.439148 1528.328857,731.390381 
	C1528.328857,980.038147 1528.354858,1228.685913 1528.244507,1477.333618 
	C1528.239502,1488.595337 1527.352783,1499.890381 1526.275024,1511.112061 
	C1522.597412,1549.400391 1510.108887,1584.835938 1490.813477,1617.957520 
	C1467.591919,1657.818481 1436.122192,1689.727295 1397.178101,1714.293213 
	C1358.488403,1738.698486 1316.070801,1752.424072 1270.610352,1755.430664 
	C1234.863647,1757.794800 1199.821533,1752.899536 1165.688354,1741.074097 
	C1118.018921,1724.558716 1078.161743,1696.880493 1045.049438,1659.203003 
	C1027.586914,1639.332642 1013.778137,1616.988281 1002.779846,1592.971558 
	C987.530029,1559.670898 978.547241,1524.656494 978.475464,1488.012939 
	C978.150452,1322.026123 978.332397,1156.038330 978.331848,990.050964 
	C978.331848,986.566223 978.331848,983.081543 978.331848,977.613647 
	C974.068115,981.651062 971.426636,984.035828 968.913391,986.548767 
	C835.270996,1120.172485 701.639587,1253.807007 568.007141,1387.440552 
	C565.415100,1390.032715 562.970825,1392.797119 560.195190,1395.174561 
	C557.136047,1397.794800 556.071533,1400.856079 556.272644,1404.834351 
	C556.875732,1416.764526 557.489990,1428.704834 557.615723,1440.646240 
	C557.994568,1476.618408 562.909912,1512.069824 569.808960,1547.266479 
	C584.371582,1621.560181 610.468994,1691.576538 648.231628,1757.236450 
	C674.348083,1802.646484 704.911743,1844.739502 740.527771,1883.214233 
	C768.151611,1913.055298 797.736816,1940.687256 830.016785,1965.419434 
	C872.682434,1998.108887 918.223267,2026.145508 967.437439,2047.765259 
	C991.413513,2058.297852 1015.936462,2067.917725 1040.890747,2075.802002 
	C1068.060669,2084.386230 1096.017578,2090.479492 1125.348755,2097.727539 
M1094.962769,718.335327 
	C1099.962280,718.335266 1105.022095,718.819885 1109.945068,718.205994 
	C1115.456909,717.518677 1121.252197,716.718872 1126.213623,714.428833 
	C1144.272827,706.093262 1151.578125,690.740540 1151.612183,671.674316 
	C1151.748535,595.345825 1151.671875,519.017029 1151.666626,442.688324 
	C1151.664429,412.314728 1129.497925,395.254761 1104.104858,395.378754 
	C976.448914,396.002014 848.788330,395.664673 721.129395,395.664673 
	C623.468628,395.664703 525.807861,395.640472 428.147125,395.683868 
	C406.975067,395.693268 390.768799,407.733154 385.416168,427.794891 
	C383.984802,433.159729 383.741974,438.964142 383.734192,444.567810 
	C383.629974,519.563110 383.658234,594.558655 383.685242,669.554077 
	C383.686432,672.875977 383.833862,676.214172 384.179810,679.516907 
	C386.593231,702.560852 403.940247,718.301331 427.002838,718.324463 
	C466.333771,718.363892 505.664764,718.335388 544.995728,718.335449 
	C548.549683,718.335449 552.103577,718.335327 556.331482,718.335327 
	C556.331482,818.476990 556.331482,917.423706 556.331482,1016.370422 
	C556.331482,1115.443359 556.331482,1214.516235 556.331482,1315.729736 
	C560.549683,1311.737305 562.975159,1309.549561 565.281921,1307.242920 
	C700.807922,1171.728149 836.303528,1036.183105 971.930176,900.769104 
	C976.513306,896.193054 978.510559,891.682800 978.478333,885.142944 
	C978.221558,833.147339 978.327515,781.149963 978.352783,729.153076 
	C978.354492,725.653809 978.606506,722.154724 978.754517,718.335327 
	C1017.666077,718.335327 1055.320068,718.335327 1094.962769,718.335327 
z"/>
<path fill="#3B3B3B" opacity="1.000000" stroke="none" 
	d="
M1124.490112,2097.693115 
	C1096.017578,2090.479492 1068.060669,2084.386230 1040.890747,2075.802002 
	C1015.936462,2067.917725 991.413513,2058.297852 967.437439,2047.765259 
	C918.223267,2026.145508 872.682434,1998.108887 830.016785,1965.419434 
	C797.736816,1940.687256 768.151611,1913.055298 740.527771,1883.214233 
	C704.911743,1844.739502 674.348083,1802.646484 648.231628,1757.236450 
	C610.468994,1691.576538 584.371582,1621.560181 569.808960,1547.266479 
	C562.909912,1512.069824 557.994568,1476.618408 557.615723,1440.646240 
	C557.489990,1428.704834 556.875732,1416.764526 556.272644,1404.834351 
	C556.071533,1400.856079 557.136047,1397.794800 560.195190,1395.174561 
	C562.970825,1392.797119 565.415100,1390.032715 568.007141,1387.440552 
	C701.639587,1253.807007 835.270996,1120.172485 968.913391,986.548767 
	C971.426636,984.035828 974.068115,981.651062 978.331848,977.613647 
	C978.331848,983.081543 978.331848,986.566223 978.331848,990.050964 
	C978.332397,1156.038330 978.150452,1322.026123 978.475464,1488.012939 
	C978.547241,1524.656494 987.530029,1559.670898 1002.779846,1592.971558 
	C1013.778137,1616.988281 1027.586914,1639.332642 1045.049438,1659.203003 
	C1078.161743,1696.880493 1118.018921,1724.558716 1165.688354,1741.074097 
	C1199.821533,1752.899536 1234.863647,1757.794800 1270.610352,1755.430664 
	C1316.070801,1752.424072 1358.488403,1738.698486 1397.178101,1714.293213 
	C1436.122192,1689.727295 1467.591919,1657.818481 1490.813477,1617.957520 
	C1510.108887,1584.835938 1522.597412,1549.400391 1526.275024,1511.112061 
	C1527.352783,1499.890381 1528.239502,1488.595337 1528.244507,1477.333618 
	C1528.354858,1228.685913 1528.328857,980.038147 1528.328857,731.390381 
	C1528.328857,727.439148 1528.328857,723.487915 1528.328857,718.331604 
	C1524.074829,718.331604 1520.521240,718.331543 1516.967651,718.331604 
	C1477.637329,718.332031 1438.307007,718.358765 1398.976685,718.322876 
	C1376.393799,718.302246 1359.016357,702.944397 1356.131104,680.504272 
	C1355.792847,677.873352 1355.686768,675.196228 1355.686035,672.540466 
	C1355.662598,595.546326 1355.692505,518.552185 1355.644287,441.558014 
	C1355.634277,425.511658 1361.104736,411.965332 1374.802002,403.234039 
	C1380.738403,399.449921 1388.174194,397.874329 1395.089233,395.839935 
	C1397.853516,395.026733 1401.049438,395.669678 1404.048950,395.669647 
	C1628.031860,395.667725 1852.015259,395.863403 2075.997070,395.381195 
	C2099.776855,395.330017 2123.736816,410.371490 2123.706299,443.496368 
	C2123.666016,487.159668 2123.696777,530.823059 2123.697266,574.486389 
	C2123.697510,606.150635 2123.791260,637.815369 2123.648438,669.478943 
	C2123.595459,681.238525 2121.944824,692.690613 2113.991699,702.189270 
	C2105.446045,712.395386 2094.930176,718.413513 2081.211914,718.374817 
	C2041.548462,718.262878 2001.884644,718.332886 1962.220947,718.331604 
	C1958.587524,718.331482 1954.954102,718.331604 1950.050537,718.331604 
	C1949.915894,722.543518 1949.687988,726.372620 1949.686890,730.201721 
	C1949.665894,804.862732 1949.671265,879.523682 1949.671265,954.184692 
	C1949.671265,1112.839355 1949.795410,1271.494019 1949.574463,1430.148438 
	C1949.525757,1465.035767 1945.455322,1499.664917 1939.428467,1534.008179 
	C1933.165527,1569.697266 1924.171631,1604.727051 1912.195557,1638.944092 
	C1894.566284,1689.313599 1871.802002,1737.202759 1843.318237,1782.404785 
	C1821.456909,1817.097534 1796.764038,1849.620361 1769.335205,1880.005737 
	C1732.676147,1920.616455 1691.615479,1956.285400 1646.454102,1987.244141 
	C1620.352051,2005.137573 1593.374878,2021.596191 1565.089966,2035.697388 
	C1522.487427,2056.936523 1478.220459,2073.987305 1432.100342,2086.130615 
	C1396.740479,2095.440918 1360.931885,2102.117676 1324.568970,2105.847412 
	C1293.801392,2109.003174 1262.916748,2110.865479 1232.035400,2109.498291 
	C1196.260132,2107.914307 1160.581909,2104.624512 1124.490112,2097.693115 
z"/>
<path fill="#F00000" opacity="1.000000" stroke="none" 
	d="
M1093.968506,718.335327 
	C1055.320068,718.335327 1017.666077,718.335327 978.754517,718.335327 
	C978.606506,722.154724 978.354492,725.653809 978.352783,729.153076 
	C978.327515,781.149963 978.221558,833.147339 978.478333,885.142944 
	C978.510559,891.682800 976.513306,896.193054 971.930176,900.769104 
	C836.303528,1036.183105 700.807922,1171.728149 565.281921,1307.242920 
	C562.975159,1309.549561 560.549683,1311.737305 556.331482,1315.729736 
	C556.331482,1214.516235 556.331482,1115.443359 556.331482,1016.370422 
	C556.331482,917.423706 556.331482,818.476990 556.331482,718.335327 
	C552.103577,718.335327 548.549683,718.335449 544.995728,718.335449 
	C505.664764,718.335388 466.333771,718.363892 427.002838,718.324463 
	C403.940247,718.301331 386.593231,702.560852 384.179810,679.516907 
	C383.833862,676.214172 383.686432,672.875977 383.685242,669.554077 
	C383.658234,594.558655 383.629974,519.563110 383.734192,444.567810 
	C383.741974,438.964142 383.984802,433.159729 385.416168,427.794891 
	C390.768799,407.733154 406.975067,395.693268 428.147125,395.683868 
	C525.807861,395.640472 623.468628,395.664703 721.129395,395.664673 
	C848.788330,395.664673 976.448914,396.002014 1104.104858,395.378754 
	C1129.497925,395.254761 1151.664429,412.314728 1151.666626,442.688324 
	C1151.671875,519.017029 1151.748535,595.345825 1151.612183,671.674316 
	C1151.578125,690.740540 1144.272827,706.093262 1126.213623,714.428833 
	C1121.252197,716.718872 1115.456909,717.518677 1109.945068,718.205994 
	C1105.022095,718.819885 1099.962280,718.335266 1093.968506,718.335327 
z"/>
</svg>